<svg xmlns="http://www.w3.org/2000/svg" xmlns:xlink="http://www.w3.org/1999/xlink" aria-hidden="true" role="img" class="iconify iconify--logos" width="31.88" height="32" preserveAspectRatio="xMidYMid meet" viewBox="0 0 256 257"><defs><linearGradient id="IconifyId1813088fe1fbc01fb466" x1="-.828%" x2="57.636%" y1="7.652%" y2="78.411%"><stop offset="0%" stop-color="#FF00FF"></stop><stop offset="100%" stop-color="#FF9500"></stop></linearGradient></defs><path fill="url(#IconifyId1813088fe1fbc01fb466)" d="M255.153 37.938L134.897 252.976c-2.883 5.084-10.017 5.084-12.9 0L.846 37.938c-2.883-5.084-.849-10.936 4.605-13.815l247.605-141.362c5.454-2.879 12.025.432 12.9 5.516z"></path><path fill="#000" d="M185.432.063L96.44 17.557a6.696 6.696 0 0 0-5.922 6.134L78.854 156.42a6.697 6.697 0 0 0 6.134 7.294l88.992 2.776a6.696 6.696 0 0 0 5.922-6.134l11.664-132.729a6.697 6.697 0 0 0-6.134-7.294z"></path></svg>